<svg width="30" height="30" viewBox="0 0 30 30" fill="none" xmlns="http://www.w3.org/2000/svg">
<g clip-path="url(#clip0_34_22)">
<path d="M12.6572 20.2734C12.9808 20.2734 13.2432 20.0111 13.2432 19.6875C13.2432 19.3639 12.9808 19.1016 12.6572 19.1016C12.3336 19.1016 12.0713 19.3639 12.0713 19.6875C12.0713 20.0111 12.3336 20.2734 12.6572 20.2734Z" fill="#FEA621"/>
<path d="M2.34473 7.96875V10.3125C2.34473 10.6361 2.60705 10.8984 2.93066 10.8984H19.8643C20.1878 10.8984 20.4502 10.6361 20.4502 10.3125V7.96875C20.4502 7.64514 20.1878 7.38281 19.8643 7.38281H2.93066C2.60705 7.38281 2.34473 7.64514 2.34473 7.96875ZM8.55566 8.55469H19.2783V9.72656H8.55566V8.55469ZM3.5166 8.55469H7.38379V9.72656H3.5166V8.55469Z" fill="#FEA621"/>
<path d="M2.93066 13.2422H19.8643C20.1878 13.2422 20.4502 12.9799 20.4502 12.6562C20.4502 12.3326 20.1878 12.0703 19.8643 12.0703H2.93066C2.60705 12.0703 2.34473 12.3326 2.34473 12.6562C2.34473 12.9799 2.60705 13.2422 2.93066 13.2422Z" fill="#FEA621"/>
<path d="M2.93066 15.5859H19.8643C20.1878 15.5859 20.4502 15.3236 20.4502 15C20.4502 14.6764 20.1878 14.4141 19.8643 14.4141H2.93066C2.60705 14.4141 2.34473 14.6764 2.34473 15C2.34473 15.3236 2.60705 15.5859 2.93066 15.5859Z" fill="#FEA621"/>
<path d="M2.93066 17.9297H12.6572C12.9808 17.9297 13.2432 17.6674 13.2432 17.3438C13.2432 17.0201 12.9808 16.7578 12.6572 16.7578H2.93066C2.60705 16.7578 2.34473 17.0201 2.34473 17.3438C2.34473 17.6674 2.60705 17.9297 2.93066 17.9297Z" fill="#FEA621"/>
<path d="M2.93066 20.2734H10.3135C10.6371 20.2734 10.8994 20.0111 10.8994 19.6875C10.8994 19.3639 10.6371 19.1016 10.3135 19.1016H2.93066C2.60705 19.1016 2.34473 19.3639 2.34473 19.6875C2.34473 20.0111 2.60705 20.2734 2.93066 20.2734Z" fill="#FEA621"/>
<path d="M7.96973 24.9609H10.9584C11.2306 26.2966 12.4142 27.3047 13.8291 27.3047C15.4445 27.3047 16.7588 25.9904 16.7588 24.375C16.7588 22.7596 15.4445 21.4453 13.8291 21.4453C12.4143 21.4453 11.2306 22.4534 10.9584 23.7891H7.96973C7.64611 23.7891 7.38379 24.0514 7.38379 24.375C7.38379 24.6986 7.64611 24.9609 7.96973 24.9609ZM13.8291 23.7891H12.1721C12.4139 23.1071 13.0652 22.6172 13.8291 22.6172C14.7984 22.6172 15.5869 23.4057 15.5869 24.375C15.5869 25.3443 14.7984 26.1328 13.8291 26.1328C13.0653 26.1328 12.4139 25.6429 12.1721 24.9609H13.8291C14.1527 24.9609 14.415 24.6986 14.415 24.375C14.415 24.0514 14.1527 23.7891 13.8291 23.7891Z" fill="#FEA621"/>
<path d="M19.8643 4.6875C20.1878 4.6875 20.4502 4.42518 20.4502 4.10156C20.4502 3.77795 20.1878 3.51562 19.8643 3.51562H18.6924C18.3688 3.51562 18.1064 3.77795 18.1064 4.10156C18.1064 4.42518 18.3688 4.6875 18.6924 4.6875H19.8643Z" fill="#FEA621"/>
<path d="M16.3486 4.6875C16.6722 4.6875 16.9346 4.42518 16.9346 4.10156C16.9346 3.77795 16.6722 3.51562 16.3486 3.51562H15.1768C14.8532 3.51562 14.5908 3.77795 14.5908 4.10156C14.5908 4.42518 14.8532 4.6875 15.1768 4.6875H16.3486Z" fill="#FEA621"/>
<path d="M12.833 4.6875C13.1566 4.6875 13.4189 4.42518 13.4189 4.10156C13.4189 3.77795 13.1566 3.51562 12.833 3.51562H11.6611C11.3375 3.51562 11.0752 3.77795 11.0752 4.10156C11.0752 4.42518 11.3375 4.6875 11.6611 4.6875H12.833Z" fill="#FEA621"/>
<path d="M11.4854 30C11.809 30 12.0713 29.7377 12.0713 29.4141C12.0713 29.0905 11.809 28.8281 11.4854 28.8281C11.1617 28.8281 10.8994 29.0905 10.8994 29.4141C10.8994 29.7377 11.1617 30 11.4854 30Z" fill="#FEA621"/>
<path d="M0.586914 30H8.84863C9.17225 30 9.43457 29.7377 9.43457 29.4141C9.43457 29.0904 9.17225 28.8281 8.84863 28.8281H1.17285V5.85938H5.27441C5.59803 5.85938 5.86035 5.59705 5.86035 5.27344V1.17188H21.6221V17.7335C21.3563 18.048 21.1081 18.3241 20.8933 18.5444L19.6512 17.3022C18.5065 16.1568 16.6527 16.1563 15.5077 17.3021L14.6792 18.1306C14.4504 18.3594 14.4504 18.7304 14.6792 18.9592L21.622 25.9021V28.8281H14.122C13.7984 28.8281 13.5361 29.0904 13.5361 29.4141C13.5361 29.7377 13.7984 30 14.122 30H22.2079C22.5315 30 22.7939 29.7377 22.7939 29.4141V27.0739L22.9655 27.2456C23.1943 27.4742 23.5654 27.4744 23.7942 27.2456L24.6227 26.4171C25.7675 25.2722 25.7678 23.4188 24.6227 22.2738L23.3807 21.0317C24.4922 19.9487 26.937 18.1498 28.2215 17.5904C30.0246 16.8055 30.6752 14.354 29.1368 12.8156C27.6101 11.2881 25.1695 11.9088 24.3699 13.717C24.07 14.3947 23.4487 15.3475 22.7939 16.2404V0.585938C22.7939 0.262324 22.5316 0 22.208 0H5.27441C5.11463 0 4.96445 0.0673828 4.8601 0.171621L0.172598 4.85912C0.0666016 4.96488 0.000976562 5.11441 0.000976562 5.27344V29.4141C0.000976562 29.7377 0.263301 30 0.586914 30ZM23.794 23.1024C24.4809 23.7892 24.481 24.9014 23.794 25.5884L23.3799 26.0026L15.9222 18.5449L16.3365 18.1306C17.0233 17.4434 18.1352 17.4431 18.8224 18.1307L23.794 23.1024ZM22.6673 18.3107C23.6827 17.0861 24.9344 15.3373 25.4416 14.1911C25.897 13.1612 27.3445 12.6801 28.3081 13.6442C29.2722 14.6083 28.7825 16.0682 27.7537 16.5159C26.2957 17.151 23.7581 19.0238 22.552 20.203L21.722 19.373C21.9998 19.0888 22.3244 18.7244 22.6673 18.3107ZM4.68848 2.00051V4.6875H2.00148L4.68848 2.00051Z" fill="#FEA621"/>
</g>
<defs>
<clipPath id="clip0_34_22">
<rect width="30" height="30" fill="white"/>
</clipPath>
</defs>
</svg>
