<svg width="30" height="30" viewBox="0 0 30 30" fill="none" xmlns="http://www.w3.org/2000/svg">
<g clip-path="url(#clip0_34_40)">
<path d="M18.8196 9.74379L16.5416 9.4125L15.523 7.34848C15.4243 7.1485 15.2207 7.02188 14.9976 7.02182C14.7746 7.02182 14.5709 7.14844 14.4721 7.34836L13.453 9.4125L11.1749 9.74379C10.9542 9.7759 10.7708 9.93053 10.702 10.1426C10.6331 10.3547 10.6906 10.5876 10.8503 10.7432L12.4988 12.3499L12.1096 14.6185C12.0719 14.8383 12.1623 15.0605 12.3428 15.1916C12.5233 15.3227 12.7625 15.34 12.9598 15.2362L14.9974 14.1649L17.0346 15.2361C17.2335 15.3408 17.4727 15.3216 17.6517 15.1916C17.8321 15.0605 17.9225 14.8383 17.8848 14.6185L17.4956 12.3499L19.1442 10.7432C19.3039 10.5875 19.3614 10.3547 19.2925 10.1426C19.2236 9.93047 19.0403 9.7759 18.8196 9.74379ZM16.4571 11.7257C16.319 11.8603 16.256 12.0543 16.2885 12.2443L16.529 13.6463L15.2703 12.9844C15.0996 12.8946 14.8955 12.8945 14.7249 12.9844L13.4654 13.6465L13.7059 12.2443C13.7385 12.0543 13.6754 11.8603 13.5373 11.7257L12.5184 10.7326L13.9264 10.5278C14.1172 10.5001 14.2821 10.3802 14.3674 10.2074L14.9974 8.93151L15.6269 10.2073C15.7123 10.3802 15.8772 10.5001 16.068 10.5278L17.4759 10.7326L16.4571 11.7257Z" fill="#FEA621"/>
<path d="M1.64284 25.0169C2.57548 25.2034 4.4728 25.5829 5.40297 25.7689C5.58889 26.6987 5.96881 28.5984 6.1549 29.529C6.19779 29.7435 6.3567 29.9163 6.56699 29.977C6.77588 30.0373 7.00287 29.977 7.15439 29.8174L14.3786 22.2064C14.558 22.2452 14.7491 22.2656 14.9513 22.2656C15.1561 22.2656 15.3459 22.2449 15.5247 22.2045L22.8481 29.8202C22.9971 29.975 23.2223 30.0386 23.4348 29.9764C23.6442 29.9153 23.8022 29.7429 23.845 29.529C24.0314 28.5973 24.4109 26.6991 24.597 25.7689C25.5268 25.5829 27.4245 25.2034 28.3571 25.0169C28.5666 24.975 28.7367 24.8224 28.8009 24.6186C28.8652 24.4148 28.8135 24.1923 28.6659 24.0377L22.7874 17.881C22.867 17.8565 22.9492 17.837 23.0344 17.8236C23.707 17.7181 24.2166 17.3502 24.5924 16.6992C24.9528 16.075 25.0178 15.4408 24.7855 14.8143C24.5186 14.0952 24.7146 13.356 25.2968 12.8854C25.8267 12.4577 26.0842 11.8844 26.0842 11.1328C26.0842 10.4115 25.8231 9.82967 25.3084 9.40363C24.7182 8.91467 24.5187 8.17651 24.7876 7.47731C25.0321 6.84251 24.9682 6.21743 24.5924 5.56639C24.2315 4.94126 23.7145 4.56784 23.0565 4.45675C22.3005 4.32814 21.7585 3.78872 21.642 3.04833C21.5356 2.3765 21.1679 1.8672 20.5174 1.49097C19.892 1.13056 19.2576 1.06594 18.6324 1.29867C17.9136 1.56515 17.1746 1.36898 16.7036 0.786327C16.2755 0.257226 15.7024 0 14.9513 0C14.2304 0 13.6487 0.260742 13.2222 0.775194C12.7329 1.36582 11.9946 1.56545 11.2956 1.29644C10.6601 1.05211 10.0352 1.1158 9.38488 1.49121C8.75986 1.85214 8.38644 2.36935 8.27523 3.02771C8.14674 3.78333 7.60715 4.32526 6.86775 4.44204C6.19592 4.54745 5.68633 4.91513 5.30975 5.56639C4.94934 6.19065 4.8843 6.82481 5.11668 7.45135C5.38358 8.17041 5.18752 8.90963 4.60487 9.38061C4.07577 9.80869 3.81854 10.3819 3.81854 11.1328C3.81854 11.8544 4.07946 12.4362 4.59373 12.8619C5.18418 13.3511 5.38393 14.0893 5.11504 14.7883C4.87047 15.4235 4.93416 16.0486 5.30975 16.6992C5.67057 17.3241 6.18748 17.6976 6.84566 17.8088C6.94141 17.8251 7.03428 17.8493 7.12434 17.8792L1.33095 24.041C1.18517 24.1961 1.13489 24.418 1.1997 24.6208C1.2645 24.8235 1.43419 24.9751 1.64284 25.0169ZM6.52832 25.4201L6.47553 25.156C6.42918 24.924 6.24783 24.7426 6.0158 24.6962L5.65768 24.6246L9.26974 20.7039C9.67005 20.9593 10.1072 21.1128 10.5744 21.1028L6.52832 25.4201ZM7.08238 28.1911L6.81074 26.8325L12.3567 20.9149C12.6825 21.0086 12.9752 21.2031 13.1991 21.4799C13.2384 21.5283 13.2796 21.5738 13.3217 21.6178L7.08238 28.1911ZM22.9158 28.1998L16.5761 21.6072C16.6118 21.5695 16.6469 21.531 16.6806 21.4903C16.9156 21.2065 17.2171 21.008 17.5488 20.9141L23.1887 26.8354L22.9158 28.1998ZM23.9841 24.6963C23.7521 24.7427 23.5707 24.924 23.5244 25.1561L23.4694 25.4311L19.3569 21.1134C19.7397 21.1136 20.1238 21.0015 20.5172 20.7747C20.5584 20.7509 20.5981 20.7263 20.6371 20.7011L24.3298 24.6272L23.9841 24.6963ZM27.0829 24.0767L25.6839 24.3564L21.4337 19.8375C21.5256 19.6527 21.591 19.4526 21.6275 19.2376C21.6668 19.0059 21.7461 18.7938 21.8593 18.6059L27.0829 24.0767ZM7.04166 16.6535C6.81965 16.6159 6.56084 16.5224 6.32465 16.1132C6.07938 15.6884 6.12842 15.4179 6.20875 15.2091C6.65729 14.0431 6.31686 12.7676 5.34116 11.9593C5.16772 11.8158 4.99041 11.6053 4.99041 11.1328C4.99041 10.6422 5.16813 10.4322 5.34174 10.2918C6.31334 9.50641 6.65623 8.23141 6.21537 7.04372C6.13697 6.83231 6.08863 6.56102 6.32441 6.15268C6.57051 5.72706 6.82896 5.63431 7.04992 5.59968C8.28379 5.40479 9.21818 4.47239 9.43064 3.22359C9.4682 3.0014 9.56171 2.74236 9.97081 2.50611C10.3954 2.26095 10.6662 2.31 10.8749 2.39021C12.0407 2.83904 13.3163 2.49855 14.1245 1.52302C14.2685 1.34935 14.4793 1.17187 14.9513 1.17187C15.4419 1.17187 15.6518 1.34959 15.7924 1.52326C16.5777 2.49474 17.8524 2.83775 19.0405 2.39718C19.2515 2.31861 19.5226 2.27021 19.9314 2.50582C20.3565 2.75162 20.4496 3.01072 20.4844 3.23109C20.6786 4.46501 21.6111 5.39958 22.8607 5.6121C23.0825 5.6496 23.3412 5.74305 23.5775 6.15227C23.823 6.57766 23.7741 6.84795 23.6939 7.05637C23.2453 8.22262 23.5855 9.49815 24.5609 10.3062C24.7347 10.45 24.9123 10.6606 24.9123 11.1327C24.9123 11.6235 24.7345 11.8331 24.5603 11.9737C23.5887 12.7591 23.2458 14.0341 23.6867 15.2218C23.7651 15.4332 23.8134 15.7045 23.5774 16.1132C23.332 16.5385 23.0733 16.6312 22.8522 16.6659C21.6129 16.8616 20.6828 17.7994 20.4721 19.0415C20.4155 19.3754 20.2338 19.5855 19.9321 19.7593C19.5066 20.0046 19.2358 19.9555 19.0275 19.8754C18.5917 19.7075 18.1416 19.6474 17.6909 19.6966C16.9503 19.7759 16.271 20.1475 15.778 20.7429C15.5608 21.0053 15.3 21.0936 14.9514 21.0936C14.5196 21.0936 14.2888 20.9628 14.1097 20.7421C13.5559 20.0575 12.7521 19.6787 11.8983 19.6787C11.5503 19.6787 11.2031 19.7421 10.8617 19.8683C10.6507 19.9469 10.3798 19.9953 9.97105 19.7595C9.59083 19.5399 9.46152 19.3086 9.41828 19.0338C9.22615 17.8217 8.31015 16.8692 7.04166 16.6535ZM8.04467 18.6111C8.15189 18.7927 8.22566 18.9961 8.26058 19.2166C8.29638 19.4439 8.36535 19.6547 8.46437 19.8485L4.31213 24.3556L2.90759 24.0747L8.04467 18.6111Z" fill="#FEA621"/>
<path d="M19.9805 16.6406C20.3041 16.6406 20.5664 16.3783 20.5664 16.0547C20.5664 15.7311 20.3041 15.4688 19.9805 15.4688C19.6569 15.4688 19.3945 15.7311 19.3945 16.0547C19.3945 16.3783 19.6569 16.6406 19.9805 16.6406Z" fill="#FEA621"/>
<path d="M15 18.75C16.0644 18.75 17.0944 18.5345 18.0616 18.1095C18.3579 17.9793 18.4925 17.6336 18.3623 17.3374C18.2321 17.0411 17.8864 16.9065 17.5901 17.0367C16.7725 17.396 15.9011 17.5781 15 17.5781C11.4461 17.5781 8.55469 14.6868 8.55469 11.1328C8.55469 7.57887 11.4461 4.6875 15 4.6875C18.5539 4.6875 21.4453 7.57887 21.4453 11.1328C21.4453 12.0076 21.2733 12.8554 20.9341 13.6529C20.8074 13.9507 20.9462 14.2948 21.2439 14.4214C21.5416 14.5481 21.8858 14.4093 22.0124 14.1116C22.4137 13.1682 22.6172 12.1661 22.6172 11.1328C22.6172 6.9327 19.2002 3.51562 15 3.51562C10.7998 3.51562 7.38281 6.9327 7.38281 11.1328C7.38281 15.3329 10.7999 18.75 15 18.75Z" fill="#FEA621"/>
</g>
<defs>
<clipPath id="clip0_34_40">
<rect width="30" height="30" fill="white"/>
</clipPath>
</defs>
</svg>
