<svg width="30" height="30" viewBox="0 0 30 30" fill="none" xmlns="http://www.w3.org/2000/svg">
<g clip-path="url(#clip0_34_13)">
<path d="M28.6561 26.656C28.4273 26.4272 28.0564 26.4272 27.8274 26.656C27.5986 26.8848 27.5986 27.2558 27.8274 27.4847L27.999 27.6563H2.34331V2.00057L2.51493 2.17219C2.62936 2.28656 2.7793 2.34375 2.92924 2.34375C3.07918 2.34375 3.22913 2.2865 3.34356 2.17213C3.57237 1.94332 3.57237 1.5723 3.34356 1.34344L2.17168 0.171562C1.94282 -0.0571875 1.57192 -0.0571875 1.34299 0.171562L0.171118 1.34344C-0.0576904 1.57225 -0.0576904 1.94326 0.171118 2.17213C0.399985 2.40088 0.770884 2.40088 0.99981 2.17213L1.17143 2.00057V6.5625H0.585493C0.261938 6.5625 -0.000444336 6.82488 -0.000444336 7.14844C-0.000444336 7.47199 0.261938 7.73438 0.585493 7.73438H1.17143V10.0781H0.585493C0.261938 10.0781 -0.000444336 10.3405 -0.000444336 10.6641C-0.000444336 10.9876 0.261938 11.25 0.585493 11.25H1.17143V13.5938H0.585493C0.261938 13.5938 -0.000444336 13.8561 -0.000444336 14.1797C-0.000444336 14.5032 0.261938 14.7656 0.585493 14.7656H1.17143V17.1094H0.585493C0.261938 17.1094 -0.000444336 17.3718 -0.000444336 17.6953C-0.000444336 18.0189 0.261938 18.2812 0.585493 18.2812H1.17143V20.625H0.585493C0.261938 20.625 -0.000444336 20.8874 -0.000444336 21.2109C-0.000444336 21.5345 0.261938 21.7969 0.585493 21.7969H1.17143V24.1406H0.585493C0.261938 24.1406 -0.000444336 24.403 -0.000444336 24.7266C-0.000444336 25.0501 0.261938 25.3125 0.585493 25.3125H1.17143V27.6562H0.585493C0.261938 27.6562 -0.000444336 27.9186 -0.000444336 28.2422C-0.000444336 28.5657 0.261938 28.8281 0.585493 28.8281H1.17143V29.4141C1.17143 29.7376 1.43381 30 1.75737 30C2.08092 30 2.34331 29.7376 2.34331 29.4141V28.8281H4.68706V29.4141C4.68706 29.7376 4.94944 30 5.27299 30C5.59655 30 5.85893 29.7376 5.85893 29.4141V28.8281H8.20268V29.4141C8.20268 29.7376 8.46506 30 8.78862 30C9.11217 30 9.37456 29.7376 9.37456 29.4141V28.8281H11.7183V29.4141C11.7183 29.7376 11.9807 30 12.3042 30C12.6278 30 12.8902 29.7376 12.8902 29.4141V28.8281H15.2339V29.4141C15.2339 29.7376 15.4963 30 15.8199 30C16.1434 30 16.4058 29.7376 16.4058 29.4141V28.8281H18.7496V29.4141C18.7496 29.7376 19.0119 30 19.3355 30C19.659 30 19.9214 29.7376 19.9214 29.4141V28.8281H22.2652V29.4141C22.2652 29.7376 22.5276 30 22.8511 30C23.1747 30 23.4371 29.7376 23.4371 29.4141V28.8281H27.999L27.8274 28.9997C27.5986 29.2286 27.5986 29.5996 27.8274 29.8284C28.0563 30.0572 28.4271 30.0572 28.6561 29.8284L29.8279 28.6566C30.0567 28.4278 30.0567 28.0567 29.8279 27.8279L28.6561 26.656Z" fill="#FEA621"/>
<path d="M14.6484 10.0781C14.972 10.0781 15.2344 9.81579 15.2344 9.49219C15.2344 9.16858 14.972 8.90625 14.6484 8.90625C14.3248 8.90625 14.0625 9.16858 14.0625 9.49219C14.0625 9.81579 14.3248 10.0781 14.6484 10.0781Z" fill="#FEA621"/>
<path d="M18.1641 0H14.6484C14.3249 0 14.0625 0.262383 14.0625 0.585938V6.85547C14.0625 7.17902 14.3249 7.44141 14.6484 7.44141C14.972 7.44141 15.2344 7.17902 15.2344 6.85547V1.17188H17.5781V25.3125H15.2344V12.1289C15.2344 11.8054 14.972 11.543 14.6484 11.543C14.3249 11.543 14.0625 11.8054 14.0625 12.1289V19.4531H11.7188V8.32031C11.7188 7.99676 11.4564 7.73438 11.1328 7.73438H7.61719C7.29363 7.73438 7.03125 7.99676 7.03125 8.32031V12.4219H4.10156C3.77801 12.4219 3.51562 12.6843 3.51562 13.0078V25.8984C3.51562 26.222 3.77801 26.4844 4.10156 26.4844H25.1953C25.5189 26.4844 25.7812 26.222 25.7812 25.8984V20.0391C25.7812 19.7155 25.5189 19.4531 25.1953 19.4531H22.2656V13.0078C22.2656 12.6843 22.0032 12.4219 21.6797 12.4219H18.75V0.585938C18.75 0.262383 18.4877 0 18.1641 0ZM7.03125 25.3125H4.6875V13.5938H7.03125V25.3125ZM10.5469 25.3125H8.20312V8.90625H10.5469V25.3125ZM14.0625 25.3125H11.7188V20.625H14.0625V25.3125ZM22.2656 20.625H24.6094V25.3125H22.2656V20.625ZM21.0938 13.5938V25.3125H18.75V13.5938H21.0938Z" fill="#FEA621"/>
</g>
<defs>
<clipPath id="clip0_34_13">
<rect width="30" height="30" fill="white"/>
</clipPath>
</defs>
</svg>
