<svg width="75" height="24" viewBox="0 0 75 24" fill="none" xmlns="http://www.w3.org/2000/svg">
<g clip-path="url(#clip0_14_1353)">
<path d="M9.52033 10.1415L0 0.644965V0H2.60577L17.6166 14.9732L16.223 16.6274H16.0252L13.2299 13.8389L9.52033 9.36043V10.1415Z" fill="white"/>
<path d="M19.8243 12.3572L7.43594 0H4.18359L18.3387 14.117L19.8243 12.3572Z" fill="white"/>
<path d="M2.81763 8.27343L9.52033 14.9567V11.7152L0 2.21844V5.38222H2.81763V8.27343Z" fill="white"/>
<path d="M9.89935 0H9.01318L12.8786 3.85596L9.89935 0Z" fill="white"/>
<path d="M22.0284 9.73842L17.7392 5.45996L16.3096 7.27814L20.543 11.5009L22.0284 9.73842Z" fill="white"/>
<path d="M19.5229 24H21.8391L19.5229 21.6898V24Z" fill="white"/>
<path d="M0 24H2.52224L0 21.4841V24Z" fill="white"/>
<path d="M9.52008 18.6512V16.5301L2.81738 9.84412V13.0883L12.4076 22.6545V19.4101L11.6467 18.6512H9.52008Z" fill="white"/>
<path d="M0 18.6512V19.9106L4.09963 24H7.35216L1.98997 18.6512H0Z" fill="white"/>
<path d="M2.81738 17.9033L8.9293 24H12.1817L2.81738 14.6591V17.9033Z" fill="white"/>
<path d="M53.4854 7.18921V10.4334L60.3247 17.2557V16.2158H62.5348L53.4854 7.18921Z" fill="white"/>
<path d="M50.6313 4.34241V5.38222H51.6712L50.6313 4.34241Z" fill="white"/>
<path d="M29.113 11.9902L19.8629 2.76337L18.4331 4.58155L29.113 15.2317V11.9902Z" fill="white"/>
<path d="M44.6839 5.31539H46.5681L41.2392 0H37.9868L44.6839 6.68038V5.31539Z" fill="white"/>
<path d="M60.3246 5.86304H61.8127L55.935 0H52.6826L60.3246 7.62287V5.86304Z" fill="white"/>
<path d="M71.7037 2.02386C70.536 1.12036 69.0997 0.519876 67.395 0.222412L74.0587 7.07796C73.858 4.87618 73.2115 3.19148 71.7037 2.02386Z" fill="white"/>
<path d="M44.6841 13.069L37.8447 6.24677V9.49098L44.6841 16.3132V13.069Z" fill="white"/>
<path d="M35.0244 3.43329V5.31539H36.9111L35.0244 3.43329Z" fill="white"/>
<path d="M29.1129 7.17253L21.9864 0.0612183L20.5566 1.87922L29.1129 10.4167V7.17253Z" fill="white"/>
<path d="M44.6841 8.25401L36.4094 0H35.0244V1.86253L44.6841 11.4982V8.25401Z" fill="white"/>
<path d="M19.5229 18.6512V20.1164L23.4165 24H26.6688L21.3066 18.6512H19.5229Z" fill="white"/>
<path d="M63.385 20.3081V18.8236L61.8076 18.7347L63.385 20.3081Z" fill="white"/>
<path d="M53.4854 15.2484L62.2588 24H63.3848V21.8789L53.4854 12.0069V15.2484Z" fill="white"/>
<path d="M53.4855 18.6512H52.0669L57.4291 24H60.6814L53.4855 16.8219V18.6512Z" fill="white"/>
<path d="M50.6313 22.0372L52.599 24H55.8515L50.6313 18.793V22.0372Z" fill="white"/>
<path d="M57.5127 0L63.3904 5.86307H64.6919C65.5169 5.86307 66.1923 6.06324 66.718 6.46358C67.2448 6.86399 67.5096 7.43936 67.5096 8.19552C67.5286 8.69072 67.3995 9.18037 67.1389 9.60222L71.6037 14.0558C72.2419 13.5777 72.5595 13.0162 72.9693 12.3795L60.7651 0H57.5127Z" fill="white"/>
<path d="M64.6917 0H62.3423L73.5125 11.3509C73.8592 10.5015 74.0544 9.59836 74.0894 8.68203L65.6198 0.0250121C65.3188 0.00833738 65.0094 0 64.6917 0Z" fill="white"/>
<path d="M64.6919 10.6975H63.4072L68.4015 15.6794C69.1909 15.4382 69.9488 15.1041 70.6589 14.6841L66.3 10.3388C65.8019 10.5888 65.2494 10.712 64.6919 10.6975Z" fill="white"/>
<path d="M60.3245 10.6976V9.19351L51.108 0H50.6313V2.7689L53.2511 5.38213H53.4851V5.61565L64.112 16.2159H64.6916C65.5107 16.212 66.3278 16.1348 67.1331 15.9852L61.8324 10.6976H60.3245Z" fill="white"/>
<path d="M42.8169 0L47.5381 4.70939V1.465L46.0692 0H42.8169Z" fill="white"/>
<path d="M23.5 0L29.1131 5.59891V5.38219H31.9308V5.16529L26.7525 0H23.5Z" fill="white"/>
<path d="M28.3301 0L31.9309 3.59184V0.347441L31.5824 0H28.3301Z" fill="white"/>
<path d="M29.1131 18.6512V16.8054L22.377 10.0861V13.3303L31.9308 22.8602V19.616L30.9636 18.6512H29.1131Z" fill="white"/>
<path d="M35.0244 24H36.3259L35.0244 22.7018V24Z" fill="white"/>
<path d="M35.0244 18.6512V21.1282L37.9032 24H41.1558L35.7936 18.6512H35.0244Z" fill="white"/>
<path d="M44.6841 18.6512V17.8866L37.8447 11.0646V14.3061L47.5381 23.975V20.7335L45.4505 18.6512H44.6841Z" fill="white"/>
<path d="M37.8449 18.6512H37.3711L42.7333 24H45.9858L37.8449 15.8796V18.6512Z" fill="white"/>
<path d="M22.377 18.1452L28.2462 24H31.4959L22.377 14.9037V18.1452Z" fill="white"/>
</g>
<defs>
<clipPath id="clip0_14_1353">
<rect width="74.0896" height="24" fill="white"/>
</clipPath>
</defs>
</svg>
